# Blender v2.92.0 OBJ File: ''
# www.blender.org
o Plane
v -10.000000 0.000000 10.000000
v 10.000000 0.000000 10.000000
v -8.386972 0.000000 10.000000
v -3.185809 0.000000 10.000000
v -8.386972 0.000000 -1.454525
v -3.185807 0.000000 -1.454525
v -8.386972 3.260855 10.000000
v -3.185809 3.260855 10.000000
v -8.386972 3.260855 5.378664
v -3.185807 3.260855 5.378664
v 10.000000 0.000000 -1.454524
v -3.185809 3.266903 10.000000
v 10.000000 3.266903 10.000000
v -3.185807 3.266903 -1.454525
v 10.000000 3.266903 -1.454524
v 10.000000 3.266903 -0.652170
v -3.185807 3.266903 -0.652171
v 10.000000 3.830765 -0.652170
v 10.000000 3.830765 -1.454524
v -3.185807 3.830765 -1.454525
v -3.185807 3.830765 -0.652171
v 10.000000 3.831598 -1.537835
v -3.185807 3.831598 -1.537836
v 10.000000 3.831615 -0.567233
v -3.185807 3.831615 -0.567234
v 10.000000 3.949394 -0.652170
v 10.000000 3.949394 -1.454524
v -3.185807 3.949394 -1.454525
v -3.185807 3.949394 -0.652171
v -3.185807 3.950227 -1.537836
v 10.000000 3.950227 -1.537835
v -3.185807 3.950244 -0.567234
v 10.000000 3.950244 -0.567233
v -10.000000 0.000000 -1.454520
v -10.000000 12.209533 -1.454520
v -10.000000 12.209533 10.000000
v -8.386972 12.209533 10.000000
v -8.386972 12.209533 -1.454525
v -10.000000 20.254288 -1.454520
v -10.000000 20.254288 10.000000
v -8.386972 20.254288 10.000000
v -8.386972 20.254288 -1.454525
v -8.386972 12.209533 10.000000
v -8.386972 12.209533 -1.454525
v -8.386972 20.254288 10.000000
v -8.386972 20.254288 -1.454525
v -10.000000 0.000000 -1.454520
v -10.000000 0.000000 10.000000
v -3.185809 0.000000 10.000000
v -3.185809 0.000000 10.000000
v -3.185809 0.000000 10.000000
v 10.000000 0.000000 10.000000
v -8.386972 0.000000 10.000000
v -8.386972 0.000000 10.000000
v -8.386972 0.000000 10.000000
v -8.386972 0.000000 -1.454525
v -8.386972 0.000000 -1.454525
v -8.386972 0.000000 -1.454525
v -3.185807 0.000000 -1.454525
v -3.185807 0.000000 -1.454525
v -3.185807 0.000000 -1.454525
v -3.185807 0.000000 -1.454525
v -8.386972 3.260855 10.000000
v -8.386972 3.260855 10.000000
v -3.185809 3.260855 10.000000
v -3.185809 3.260855 10.000000
v -8.386972 3.260855 5.378664
v -8.386972 3.260855 5.378664
v -3.185807 3.260855 5.378664
v -3.185807 3.260855 5.378664
v 10.000000 0.000000 -1.454524
v -3.185809 3.266903 10.000000
v -3.185809 3.266903 10.000000
v 10.000000 3.266903 10.000000
v 10.000000 3.266903 10.000000
v -3.185807 3.266903 -0.652171
v -3.185807 3.266903 -0.652171
v -3.185807 3.266903 -0.652171
v -3.185807 3.266903 -0.652171
v 10.000000 3.266903 -0.652170
v 10.000000 3.266903 -0.652170
v 10.000000 3.266903 -0.652170
v 10.000000 3.266903 -1.454524
v 10.000000 3.266903 -1.454524
v 10.000000 3.266903 -1.454524
v -3.185807 3.266903 -1.454525
v -3.185807 3.266903 -1.454525
v -3.185807 3.266903 -1.454525
v 10.000000 3.830765 -0.652170
v 10.000000 3.830765 -0.652170
v 10.000000 3.830765 -0.652170
v 10.000000 3.830765 -1.454524
v 10.000000 3.830765 -1.454524
v 10.000000 3.830765 -1.454524
v -3.185807 3.830765 -1.454525
v -3.185807 3.830765 -1.454525
v -3.185807 3.830765 -1.454525
v -3.185807 3.830765 -0.652171
v -3.185807 3.830765 -0.652171
v -3.185807 3.830765 -0.652171
v -3.185807 3.831598 -1.537836
v 10.000000 3.831598 -1.537835
v -3.185807 3.831615 -0.567234
v 10.000000 3.831615 -0.567233
v 10.000000 3.949394 -0.652170
v 10.000000 3.949394 -0.652170
v 10.000000 3.949394 -0.652170
v 10.000000 3.949394 -1.454524
v 10.000000 3.949394 -1.454524
v 10.000000 3.949394 -1.454524
v -3.185807 3.949394 -1.454525
v -3.185807 3.949394 -1.454525
v -3.185807 3.949394 -1.454525
v -3.185807 3.949394 -0.652171
v -3.185807 3.949394 -0.652171
v -3.185807 3.949394 -0.652171
v -3.185807 3.950227 -1.537836
v -3.185807 3.950227 -1.537836
v 10.000000 3.950227 -1.537835
v 10.000000 3.950227 -1.537835
v -3.185807 3.950244 -0.567234
v -3.185807 3.950244 -0.567234
v 10.000000 3.950244 -0.567233
v 10.000000 3.950244 -0.567233
v -10.000000 12.209533 -1.454520
v -10.000000 12.209533 -1.454520
v -10.000000 12.209533 -1.454520
v -10.000000 12.209533 10.000000
v -10.000000 12.209533 10.000000
v -10.000000 12.209533 10.000000
v -8.386972 12.209533 10.000000
v -8.386972 12.209533 10.000000
v -8.386972 12.209533 -1.454525
v -8.386972 12.209533 -1.454525
v -8.386972 12.209533 -1.454525
v -10.000000 20.254288 -1.454520
v -10.000000 20.254288 -1.454520
v -10.000000 20.254288 10.000000
v -10.000000 20.254288 10.000000
v -8.386972 20.254288 -1.454525
v -8.386972 12.209533 10.000000
v -8.386972 12.209533 -1.454525
v -8.386972 20.254288 10.000000
v -8.386972 20.254288 -1.454525
v 10.000000 3.831835 -1.537915
v -3.185807 3.831835 -1.537916
v 10.000000 3.831606 -0.567235
v -3.185807 3.831606 -0.567236
v 23.972694 0.000000 10.000000
v 23.972694 2.115904 -1.454524
v 23.972694 3.266903 -0.652170
v 23.972694 3.266903 -1.454524
v 23.972694 3.266903 10.000000
v 23.972694 3.830765 -0.652170
v 23.972694 3.830765 -1.454524
v 23.972694 3.831598 -1.537835
v 23.972694 3.830765 -1.454524
v 23.972694 3.830765 -0.652170
v 23.972694 3.831615 -0.567233
v 23.972694 3.949394 -0.652170
v 23.972694 3.950244 -0.567233
v 23.972694 3.830765 -1.454524
v 23.972694 3.949394 -1.454524
v 23.972694 3.266903 -0.652170
v 23.972694 3.266903 -1.454524
v 23.972694 3.830765 -0.652170
v 23.972694 3.949394 -0.652170
v 23.972694 3.949394 -1.454524
v 23.972694 3.950227 -1.537835
v 10.000000 -4.057051 -1.565364
v -3.185807 -4.057051 -1.565366
v 10.000000 -4.057051 -1.565364
v 23.972694 -4.057051 -1.565364
v 24.775307 3.830765 -0.652170
v 24.775307 3.831615 -0.567233
v 24.775307 3.949394 -0.652170
v 24.775307 3.950244 -0.567233
v 24.858969 3.830765 -0.652170
v 24.858969 3.831615 -0.567233
v 24.858969 3.949394 -0.652170
v 24.858969 3.950244 -0.567233
v 23.972694 3.949392 -2.525995
v 23.972694 3.830763 -2.525995
v 24.775307 3.949392 -2.525995
v 24.775307 3.830763 -2.525995
v 24.858969 3.949392 -2.525995
v 24.858969 3.830763 -2.525995
v 24.775307 3.266335 -0.652170
v 23.972694 3.266335 -0.652170
v 24.775307 3.266333 -2.525994
v 23.972694 3.266333 -2.525994
v 23.889380 3.831598 -1.537835
v 23.889475 3.950227 -1.537835
v 23.972694 3.831597 -2.523514
v 23.972694 3.950226 -2.523514
v 23.889380 3.831597 -2.523514
v 23.889475 3.950226 -2.523514
v 23.972694 3.949390 -9.923654
v 23.972694 3.830761 -9.923654
v 24.775307 3.949390 -9.923654
v 24.775307 3.830761 -9.923654
v 24.858969 3.949390 -9.923654
v 24.858969 3.830761 -9.923654
v 24.775307 3.266331 -9.923653
v 23.972694 3.266331 -9.923653
v 23.972694 3.831595 -9.921173
v 23.972694 3.950224 -9.921173
v 23.889380 3.831595 -9.921173
v 23.889475 3.950224 -9.921173
v 47.019138 0.000000 10.000000
v 47.019138 2.115904 -1.454524
v 47.019138 3.266903 -0.652170
v 47.019138 3.266903 -1.454524
v 47.019138 3.266903 10.000000
v 23.972694 2.115904 -12.449377
v 23.972694 3.266903 -12.449377
v 47.019138 2.115904 -12.449377
v 47.019138 3.266903 -12.449377
v 47.019138 -6.111588 10.000000
v 47.019138 -3.995684 -1.454523
v 23.926815 -6.094327 9.978722
v 23.926815 -3.978423 -1.475803
v 47.086479 -6.100093 9.977656
v 47.086479 -3.984189 -1.476868
v 23.967571 0.000000 10.008725
v 23.967571 -6.111588 10.008725
v 23.972694 3.949389 -12.448815
v 23.972694 3.830760 -12.448815
v 24.775307 3.949389 -12.448815
v 24.775307 3.830760 -12.448815
v 24.858969 3.949389 -12.448815
v 24.858969 3.830760 -12.448815
v 24.775307 3.266330 -12.448815
v 23.972694 3.266330 -12.448815
v 23.972694 3.831594 -12.446335
v 23.972694 3.950224 -12.446335
v 23.889380 3.831594 -12.446335
v 23.889475 3.950224 -12.446335
vt 1.000000 0.000000
vt 0.000000 1.000000
vt 0.000000 0.000000
vt 0.000000 0.000000
vt 1.000000 1.000000
vt 0.000000 1.000000
vt 1.000000 0.000000
vt 0.000000 1.000000
vt 0.000000 0.000000
vt 1.000000 0.000000
vt 0.000000 1.000000
vt 0.000000 0.000000
vt 1.000000 0.000000
vt 0.000000 1.000000
vt 0.000000 0.000000
vt 1.000000 0.000000
vt 0.000000 1.000000
vt 0.000000 0.000000
vt 1.000000 0.000000
vt 0.000000 1.000000
vt 0.000000 0.000000
vt 0.000000 0.000000
vt 1.000000 0.000000
vt 1.000000 1.000000
vt 0.206107 0.095492
vt 0.793893 0.095491
vt 0.975528 0.654508
vt 0.975528 0.654508
vt 0.975528 0.654508
vt 1.000000 0.000000
vt 0.000000 1.000000
vt 0.000000 0.000000
vt 1.000000 0.000000
vt 0.000000 1.000000
vt 0.000000 0.000000
vt 1.000000 0.000000
vt 0.000000 1.000000
vt 0.000000 0.000000
vt 0.000000 0.000000
vt 1.000000 1.000000
vt 0.000000 1.000000
vt 1.000000 0.000000
vt 0.000000 1.000000
vt 0.000000 0.000000
vt 1.000000 0.000000
vt 0.000000 1.000000
vt 0.000000 0.000000
vt 0.000000 1.000000
vt 1.000000 0.000000
vt 0.000000 0.000000
vt 0.000000 1.000000
vt 1.000000 0.000000
vt 0.000000 0.000000
vt 0.000000 1.000000
vt 1.000000 0.000000
vt 0.000000 0.000000
vt 1.000000 0.000000
vt 0.000000 1.000000
vt 0.000000 0.000000
vt 0.000000 1.000000
vt 1.000000 0.000000
vt 0.000000 0.000000
vt 0.000000 1.000000
vt 1.000000 0.000000
vt 0.000000 0.000000
vt 1.000000 0.000000
vt 0.000000 1.000000
vt 0.000000 0.000000
vt 0.000000 1.000000
vt 1.000000 0.000000
vt 0.000000 0.000000
vt 0.000000 1.000000
vt 1.000000 0.000000
vt 0.000000 0.000000
vt 0.000000 0.000000
vt 1.000000 1.000000
vt 0.000000 1.000000
vt 0.000000 0.000000
vt 1.000000 1.000000
vt 1.000000 0.000000
vt 1.000000 0.000000
vt 0.000000 1.000000
vt 0.000000 0.000000
vt 1.000000 0.000000
vt 0.000000 1.000000
vt 0.000000 0.000000
vt 1.000000 0.000000
vt 0.000000 1.000000
vt 0.000000 0.000000
vt 1.000000 0.000000
vt 0.000000 1.000000
vt 0.000000 0.000000
vt 1.000000 0.000000
vt 0.000000 1.000000
vt 0.000000 0.000000
vt 1.000000 0.000000
vt 0.000000 1.000000
vt 0.000000 0.000000
vt 0.000000 0.000000
vt 0.000000 0.000000
vt 0.000000 0.000000
vt 1.000000 0.000000
vt 0.000000 1.000000
vt 0.000000 0.000000
vt 1.000000 0.000000
vt 0.000000 1.000000
vt 0.000000 0.000000
vt 0.080651 0.401897
vt 0.080651 0.000000
vt 0.080651 0.401897
vt 0.080651 0.000000
vt 0.080651 0.401897
vt 0.080651 0.000000
vt 0.080651 0.401897
vt 1.000000 1.000000
vt 0.000000 1.000000
vt 1.000000 1.000000
vt 0.000000 1.000000
vt 0.206107 0.095492
vt 0.793893 0.095491
vt 0.793893 0.095491
vt 0.000000 1.000000
vt 0.000000 1.000000
vt 0.000000 1.000000
vt 1.000000 0.000000
vt 0.000000 1.000000
vt 0.000000 0.000000
vt 1.000000 0.000000
vt 0.000000 1.000000
vt 0.000000 0.000000
vt 0.000000 0.000000
vt 1.000000 1.000000
vt 1.000000 0.000000
vt 1.000000 0.000000
vt 0.000000 0.000000
vt 1.000000 1.000000
vt 1.000000 1.000000
vt 1.000000 0.000000
vt 1.000000 1.000000
vt 1.000000 1.000000
vt 0.500000 1.000000
vt 0.500000 1.000000
vt 1.000000 1.000000
vt 0.000000 1.000000
vt 0.000000 0.000000
vt 0.024472 0.654509
vt 0.024472 0.654509
vt 0.000000 1.000000
vt 0.000000 1.000000
vt 1.000000 1.000000
vt 0.000000 0.000000
vt 0.000000 0.000000
vt 1.000000 0.000000
vt 1.000000 0.000000
vt 1.000000 1.000000
vt 1.000000 1.000000
vt 1.000000 0.000000
vt 0.000000 0.000000
vt 0.000000 0.000000
vt 0.000000 1.000000
vt 0.000000 0.000000
vt 0.000000 0.000000
vt 0.000000 0.000000
vt 0.000000 0.000000
vt 0.000000 0.000000
vt 0.000000 1.000000
vt 0.000000 1.000000
vt 0.000000 1.000000
vt 0.000000 1.000000
vt 0.000000 0.000000
vt 0.000000 0.000000
vt 0.000000 0.000000
vt 0.000000 0.000000
vt 0.000000 1.000000
vt 0.000000 0.000000
vt 0.000000 0.000000
vt 0.000000 0.000000
vt 0.000000 1.000000
vt 0.000000 0.000000
vt 0.000000 1.000000
vt 0.000000 1.000000
vt 0.000000 0.000000
vt 0.000000 0.000000
vt 0.000000 0.000000
vt 0.000000 1.000000
vt 0.000000 1.000000
vt 0.000000 0.000000
vt 0.000000 0.000000
vt 0.000000 1.000000
vt 0.000000 0.000000
vt 0.975528 0.654508
vt 0.206107 0.095492
vt 0.024472 0.654509
vt 0.975528 0.654508
vt 0.500000 1.000000
vt 0.793893 0.095491
vt 0.975528 0.654508
vt 0.793893 0.095491
vt 0.975528 0.654508
vt 0.500000 1.000000
vt 0.975528 0.654508
vt 0.500000 1.000000
vt 0.975528 0.654508
vt 0.500000 1.000000
vt 0.000000 0.000000
vt 0.000000 0.000000
vt 0.000000 0.000000
vt 0.000000 1.000000
vt 0.000000 0.000000
vt 0.000000 1.000000
vt 1.000000 1.000000
vt 1.000000 0.000000
vt 1.000000 1.000000
vt 1.000000 1.000000
vt 1.000000 1.000000
vt 1.000000 1.000000
vt 1.000000 1.000000
vt 0.975528 0.654508
vt 1.000000 1.000000
vt 1.000000 1.000000
vt 1.000000 0.000000
vt 1.000000 1.000000
vt 1.000000 1.000000
vt 1.000000 1.000000
vt 1.000000 1.000000
vt 1.000000 1.000000
vt 1.000000 1.000000
vt 1.000000 1.000000
vt 0.000000 1.000000
vt 1.000000 1.000000
vt 1.000000 1.000000
vt 1.000000 1.000000
vt 1.000000 1.000000
vt 1.000000 1.000000
vt 1.000000 1.000000
vt 0.000000 0.000000
vt 1.000000 1.000000
vt 1.000000 1.000000
vt 0.080651 0.000000
vt 1.000000 1.000000
vt 1.000000 1.000000
vt 1.000000 0.000000
vt 1.000000 1.000000
vt 0.000000 1.000000
vt 0.500000 1.000000
vt 0.500000 1.000000
vn 1.0000 0.0000 0.0000
vn 0.0000 1.0000 0.0000
vn -1.0000 0.0000 0.0000
vn 0.0000 0.9025 -0.4307
vn 0.0000 0.0000 1.0000
vn -0.0027 0.0180 -0.9998
vn 0.0000 0.0000 -1.0000
vn -0.0000 0.9999 0.0100
vn 0.0000 0.9999 -0.0100
vn 0.0000 -0.9999 -0.0128
vn -0.0000 -1.0000 0.0099
vn 0.0000 -1.0000 0.0000
vn 0.0000 -0.9999 0.0100
vn 0.0000 -0.9999 -0.0100
vn 0.0000 0.0273 -0.9996
vn 0.0000 1.0000 -0.0100
vn 0.0000 -1.0000 0.0100
vn -1.0000 0.0008 -0.0000
vn 0.0000 -0.9834 -0.1816
vn 1.0000 -0.0075 -0.0014
vn 0.0003 0.9834 0.1816
vn -0.0004 0.0000 -1.0000
vn -0.0000 1.0000 0.0100
vn 0.1473 -0.9726 -0.1797
vn 0.0000 -1.0000 -0.0100
s off
f 56/1/1 132/2/1 55/3/1
f 51/4/1 70/5/1 66/6/1
f 69/7/2 63/8/2 65/9/2
f 3/10/3 68/11/3 58/12/3
f 57/13/4 10/14/4 59/15/4
f 50/16/5 7/17/5 54/18/5
f 77/19/3 96/20/3 88/21/3
f 62/22/3 78/23/3 87/24/3
f 80/25/3 83/26/3 71/27/3
f 150/28/6 173/29/6 71/27/6
f 52/30/5 72/31/5 49/32/5
f 24/33/3 106/34/3 91/35/3
f 76/36/2 13/37/2 81/38/2
f 79/39/3 4/40/3 12/41/3
f 14/42/7 93/43/7 85/44/7
f 82/45/5 99/46/5 17/47/5
f 89/48/3 15/49/3 16/50/3
f 117/51/7 102/52/7 101/53/7
f 112/54/3 23/55/3 97/56/3
f 111/57/2 105/58/2 108/59/2
f 120/60/8 28/61/8 109/62/8
f 121/63/9 26/64/9 115/65/9
f 21/66/3 113/67/3 20/68/3
f 33/69/5 103/70/5 104/71/5
f 107/72/3 19/73/3 18/74/3
f 22/75/3 27/76/3 31/77/3
f 25/78/3 29/79/3 100/80/3
f 126/81/7 42/82/7 134/83/7
f 53/84/5 129/85/5 1/86/5
f 48/87/3 125/88/3 47/89/3
f 34/90/7 38/91/7 5/92/7
f 41/93/2 136/94/2 138/95/2
f 37/96/5 139/97/5 130/98/5
f 41/99/5 43/100/5 45/101/5
f 36/102/3 39/103/3 35/104/3
f 142/105/1 143/106/1 141/107/1
f 140/108/5 45/109/5 46/110/5
f 37/111/5 44/112/5 43/113/5
f 135/114/5 46/110/5 44/112/5
f 95/115/10 145/116/10 93/43/10
f 90/117/11 148/118/11 99/46/11
f 151/119/2 213/120/2 152/121/2
f 180/122/2 184/123/2 176/124/2
f 165/125/1 154/126/1 164/127/1
f 162/128/1 167/129/1 166/130/1
f 156/131/1 168/132/1 157/133/1
f 19/73/12 166/130/12 18/74/12
f 91/35/13 159/134/13 24/33/13
f 106/34/7 158/135/7 91/35/7
f 18/74/5 167/129/5 107/72/5
f 89/48/2 155/136/2 92/137/2
f 94/138/5 168/132/5 27/76/5
f 15/49/12 164/127/12 16/50/12
f 107/72/2 163/139/2 110/140/2
f 71/27/12 149/141/12 2/142/12
f 124/143/9 160/144/9 106/34/9
f 110/140/7 162/128/7 19/73/7
f 16/50/5 154/126/5 89/48/5
f 192/145/14 156/131/14 157/133/14
f 2/142/5 153/146/5 75/147/5
f 75/147/2 151/119/2 80/25/2
f 92/137/7 165/125/7 15/49/7
f 168/132/8 169/148/8 193/149/8
f 80/25/2 152/121/2 83/26/2
f 24/33/5 161/150/5 124/143/5
f 31/77/7 192/145/7 22/75/7
f 11/151/15 170/152/15 171/153/15
f 175/154/5 181/155/5 177/156/5
f 161/150/16 176/124/16 160/144/16
f 159/134/5 177/156/5 161/150/5
f 158/135/17 175/154/17 159/134/17
f 180/122/1 179/157/1 178/158/1
f 174/159/13 179/157/13 175/154/13
f 158/135/3 182/160/3 183/161/3
f 177/156/9 180/122/9 176/124/9
f 191/162/12 204/163/12 190/164/12
f 194/165/1 207/166/1 195/167/1
f 176/124/2 182/160/2 160/144/2
f 178/158/1 186/168/1 180/122/1
f 186/168/2 200/169/2 184/123/2
f 174/159/12 187/170/12 178/158/12
f 189/171/12 190/164/12 188/172/12
f 158/135/5 188/172/5 174/159/5
f 185/173/1 188/172/1 190/164/1
f 183/161/3 189/171/3 158/135/3
f 169/148/2 197/174/2 193/149/2
f 190/164/1 201/175/1 185/173/1
f 192/145/18 197/174/18 196/176/18
f 156/131/1 195/167/1 169/148/1
f 192/145/12 194/165/12 156/131/12
f 208/177/18 238/178/18 237/179/18
f 202/180/2 229/181/2 200/169/2
f 205/182/3 228/183/3 234/184/3
f 200/169/2 227/185/2 198/186/2
f 183/161/3 198/186/3 199/187/3
f 191/162/3 199/187/3 205/182/3
f 196/176/12 206/188/12 194/165/12
f 187/170/1 202/180/1 186/168/1
f 195/167/2 209/189/2 197/174/2
f 185/173/12 203/190/12 187/170/12
f 184/123/2 198/186/2 182/160/2
f 196/176/18 209/189/18 208/177/18
f 211/191/1 212/192/1 214/193/1
f 153/146/2 212/192/2 151/119/2
f 150/28/12 217/194/12 211/191/12
f 150/28/19 210/195/19 149/141/19
f 149/141/5 214/193/5 153/146/5
f 216/196/7 217/194/7 215/197/7
f 213/120/2 216/196/2 152/121/2
f 152/121/3 215/197/3 150/28/3
f 211/191/1 218/198/1 213/120/1
f 210/195/3 220/199/3 219/200/3
f 149/141/20 222/201/20 150/28/20
f 221/202/21 224/203/21 222/201/21
f 219/200/22 225/204/22 210/195/22
f 227/185/7 230/205/7 228/183/7
f 229/181/7 232/206/7 230/205/7
f 230/205/7 234/184/7 228/183/7
f 238/178/7 235/207/7 237/179/7
f 206/188/1 236/208/1 207/166/1
f 199/187/3 227/185/3 228/183/3
f 205/182/12 233/209/12 204/163/12
f 203/190/1 231/210/1 202/180/1
f 208/177/12 235/207/12 206/188/12
f 204/163/1 230/205/1 201/175/1
f 201/175/12 232/206/12 203/190/12
f 207/166/2 238/178/2 209/189/2
f 56/1/1 133/211/1 132/2/1
f 51/4/1 60/212/1 70/5/1
f 69/7/2 67/213/2 63/8/2
f 3/10/3 64/214/3 68/11/3
f 57/13/4 9/215/4 10/14/4
f 50/16/5 8/216/5 7/17/5
f 77/19/3 98/217/3 96/20/3
f 71/27/3 2/142/3 80/25/3
f 2/142/3 75/147/3 80/25/3
f 172/218/15 71/27/15 173/29/15
f 71/27/7 83/26/7 150/28/7
f 83/26/7 152/121/7 150/28/7
f 52/30/5 74/219/5 72/31/5
f 24/33/3 124/143/3 106/34/3
f 76/36/2 73/220/2 13/37/2
f 79/39/3 6/221/3 4/40/3
f 14/42/7 95/115/7 93/43/7
f 82/45/5 90/117/5 99/46/5
f 89/48/3 92/137/3 15/49/3
f 117/51/7 119/222/7 102/52/7
f 112/54/3 118/223/3 23/55/3
f 111/57/2 114/224/2 105/58/2
f 120/60/23 30/225/23 28/61/23
f 121/63/16 123/226/16 26/64/16
f 21/66/3 116/227/3 113/67/3
f 33/69/5 122/228/5 103/70/5
f 107/72/3 110/140/3 19/73/3
f 22/75/3 94/138/3 27/76/3
f 25/78/3 32/229/3 29/79/3
f 126/81/7 137/230/7 42/82/7
f 53/84/5 131/231/5 129/85/5
f 48/87/3 128/232/3 125/88/3
f 34/90/7 127/233/7 38/91/7
f 41/93/2 140/234/2 136/94/2
f 37/96/5 41/235/5 139/97/5
f 41/99/5 37/236/5 43/100/5
f 36/102/3 40/237/3 39/103/3
f 142/105/1 144/238/1 143/106/1
f 140/108/5 41/239/5 45/109/5
f 37/111/5 135/114/5 44/112/5
f 135/114/5 140/108/5 46/110/5
f 95/115/10 146/240/10 145/116/10
f 90/117/11 147/241/11 148/118/11
f 151/119/2 212/192/2 213/120/2
f 180/122/2 186/168/2 184/123/2
f 165/125/1 155/136/1 154/126/1
f 162/128/1 163/139/1 167/129/1
f 156/131/1 169/148/1 168/132/1
f 19/73/12 162/128/12 166/130/12
f 91/35/13 158/135/13 159/134/13
f 106/34/7 160/144/7 158/135/7
f 18/74/5 166/130/5 167/129/5
f 89/48/2 154/126/2 155/136/2
f 94/138/5 157/133/5 168/132/5
f 15/49/12 165/125/12 164/127/12
f 107/72/2 167/129/2 163/139/2
f 71/27/24 150/28/24 149/141/24
f 124/143/9 161/150/9 160/144/9
f 110/140/7 163/139/7 162/128/7
f 16/50/5 164/127/5 154/126/5
f 157/133/25 94/138/25 192/145/25
f 94/138/25 22/75/25 192/145/25
f 2/142/5 149/141/5 153/146/5
f 75/147/2 153/146/2 151/119/2
f 92/137/7 155/136/7 165/125/7
f 193/149/8 31/77/8 27/76/8
f 27/76/8 168/132/8 193/149/8
f 80/25/2 151/119/2 152/121/2
f 24/33/5 159/134/5 161/150/5
f 31/77/7 193/149/7 192/145/7
f 171/153/15 61/242/15 11/151/15
f 61/242/7 86/243/7 11/151/7
f 86/243/7 84/244/7 11/151/7
f 175/154/5 179/157/5 181/155/5
f 161/150/16 177/156/16 176/124/16
f 159/134/5 175/154/5 177/156/5
f 158/135/17 174/159/17 175/154/17
f 180/122/1 181/155/1 179/157/1
f 174/159/17 178/158/17 179/157/17
f 158/135/3 160/144/3 182/160/3
f 177/156/16 181/155/16 180/122/16
f 191/162/12 205/182/12 204/163/12
f 194/165/1 206/188/1 207/166/1
f 176/124/2 184/123/2 182/160/2
f 178/158/1 187/170/1 186/168/1
f 186/168/2 202/180/2 200/169/2
f 174/159/12 185/173/12 187/170/12
f 189/171/12 191/162/12 190/164/12
f 158/135/5 189/171/5 188/172/5
f 185/173/1 174/159/1 188/172/1
f 183/161/3 191/162/3 189/171/3
f 169/148/2 195/167/2 197/174/2
f 190/164/1 204/163/1 201/175/1
f 192/145/18 193/149/18 197/174/18
f 156/131/1 194/165/1 195/167/1
f 192/145/12 196/176/12 194/165/12
f 208/177/18 209/189/18 238/178/18
f 202/180/2 231/210/2 229/181/2
f 205/182/3 199/187/3 228/183/3
f 200/169/2 229/181/2 227/185/2
f 183/161/3 182/160/3 198/186/3
f 191/162/3 183/161/3 199/187/3
f 196/176/12 208/177/12 206/188/12
f 187/170/1 203/190/1 202/180/1
f 195/167/2 207/166/2 209/189/2
f 185/173/12 201/175/12 203/190/12
f 184/123/2 200/169/2 198/186/2
f 196/176/18 197/174/18 209/189/18
f 214/193/1 210/195/1 211/191/1
f 211/191/1 213/120/1 212/192/1
f 153/146/2 214/193/2 212/192/2
f 150/28/12 215/197/12 217/194/12
f 150/28/19 211/191/19 210/195/19
f 149/141/5 210/195/5 214/193/5
f 216/196/7 218/198/7 217/194/7
f 213/120/2 218/198/2 216/196/2
f 152/121/3 216/196/3 215/197/3
f 211/191/1 217/194/1 218/198/1
f 210/195/3 211/191/3 220/199/3
f 149/141/20 221/202/20 222/201/20
f 221/202/21 223/245/21 224/203/21
f 219/200/22 226/246/22 225/204/22
f 227/185/7 229/181/7 230/205/7
f 229/181/7 231/210/7 232/206/7
f 230/205/7 233/209/7 234/184/7
f 238/178/7 236/208/7 235/207/7
f 206/188/1 235/207/1 236/208/1
f 199/187/3 198/186/3 227/185/3
f 205/182/12 234/184/12 233/209/12
f 203/190/1 232/206/1 231/210/1
f 208/177/12 237/179/12 235/207/12
f 204/163/1 233/209/1 230/205/1
f 201/175/12 230/205/12 232/206/12
f 207/166/2 236/208/2 238/178/2
o Plane.002
v -9.999969 0.000000 -1.447068
v 23.972218 -3.977493 -1.447068
v -9.999969 0.000000 -12.301107
v 23.972218 -3.977493 -12.354198
v -3.176753 0.000000 -1.447068
v -3.150772 0.000000 -12.354198
v 47.024292 -3.988384 -1.447068
v 47.024292 -3.988384 -12.422079
v 47.008408 2.192634 -1.447068
v 47.008408 2.192634 -12.422079
v -3.218784 0.004840 -12.459743
v 47.024292 -3.988384 -12.459743
v -3.100374 18.414387 -12.377350
v 47.029381 18.403496 -12.377350
v 47.024776 -3.976252 -12.616858
v -3.218300 0.016973 -12.616858
v 47.029869 18.415628 -12.534464
v -3.099890 18.426519 -12.534464
vt 0.341161 0.000000
vt 0.000000 1.000000
vt 0.000000 0.000000
vt 0.342460 1.000000
vt 1.000000 0.000000
vt 1.000000 1.000000
vt 1.000000 0.000000
vt 1.000000 1.000000
vt 1.000000 1.000000
vt 1.000000 1.000000
vt 1.000000 1.000000
vt 0.000000 0.000000
vt 0.000000 0.000000
vt 0.000000 0.000000
vt 1.000000 1.000000
vt 1.000000 1.000000
vt 1.000000 1.000000
vt 0.000000 0.000000
vt 0.000000 0.000000
vt 1.000000 1.000000
vt 0.000000 0.000000
vt 0.000000 0.000000
vt 1.000000 0.000000
vt 0.000000 0.000000
vn 0.0000 1.0000 0.0000
vn 0.1451 0.9894 0.0000
vn 0.0005 1.0000 0.0000
vn -1.0000 -0.0026 0.0000
vn 0.0046 0.0579 0.9983
vn 0.0002 0.9970 0.0770
vn -0.0000 -0.0045 1.0000
vn -1.0000 0.0064 -0.0026
vn 0.0790 0.9939 0.0770
vn 1.0000 -0.0002 0.0031
vn 0.1450 0.9894 0.0003
vn -0.0003 -0.0037 1.0000
s off
f 243/247/26 241/248/26 239/249/26
f 244/250/27 240/251/27 242/252/27
f 242/252/28 245/253/28 246/254/28
f 245/253/29 248/255/29 246/254/29
f 242/252/30 250/256/30 249/257/30
f 252/258/31 256/259/31 251/260/31
f 254/261/32 255/262/32 256/263/32
f 251/260/33 254/264/33 249/265/33
f 249/257/34 253/266/34 254/261/34
f 253/267/35 252/258/35 250/268/35
f 243/247/26 244/250/26 241/248/26
f 244/250/36 243/247/36 240/251/36
f 242/252/28 240/251/28 245/253/28
f 245/253/29 247/269/29 248/255/29
f 242/252/28 246/254/28 250/256/28
f 252/258/31 255/270/31 256/259/31
f 254/261/37 253/266/37 255/262/37
f 251/260/33 256/259/33 254/264/33
f 249/257/34 250/256/34 253/266/34
f 253/267/35 255/270/35 252/258/35
